<svg width="334" height="502" viewBox="0 0 334 502" fill="none" xmlns="http://www.w3.org/2000/svg">
<path d="M147.45 204.017C147.554 204.067 147.658 204.116 147.758 204.172C148.817 204.771 149.38 206.213 149.704 207.335C150.768 211.029 150.42 215.194 148.537 218.534C147.307 217.797 146.59 216.82 146.116 215.487C144.8 211.785 145.814 207.434 147.45 204.017Z" fill="#D2C7CA"/>
<path d="M138.876 202.648C139.293 203.016 139.477 203.463 139.633 203.993C140.527 207.026 139.647 211.269 138.157 213.982C137.422 215.318 136.698 215.995 135.225 216.428C134.281 215.399 133.884 214.266 133.857 212.882C133.78 208.963 136.265 205.332 138.876 202.648Z" fill="#D2C7CA"/>
<path d="M153.344 230.073C153.379 230.101 153.415 230.127 153.449 230.155C155.276 231.71 155.937 234.157 156.123 236.47C156.365 239.487 156.033 242.155 154.048 244.508C153.667 244.429 153.35 244.333 153.015 244.127C152.064 243.543 151.58 242.43 151.328 241.382C150.456 237.747 151.393 233.202 153.344 230.073Z" fill="#D2C7CA"/>
<path d="M140.139 228.836C140.764 229.18 141.118 229.679 141.362 230.342C142.391 233.135 141.719 237.185 140.518 239.822C139.735 241.543 138.916 242.5 137.114 243.161C135.982 242.043 135.33 241.074 135.222 239.43C134.965 235.499 137.659 231.617 140.139 228.836Z" fill="#B3C09E"/>
<path d="M123.924 225.188C124.66 225.923 124.755 227.304 124.762 228.302C124.784 231.45 123.899 235.842 121.577 238.151C120.718 239.006 120.021 239.205 118.833 239.194C117.764 237.854 117.396 236.506 117.586 234.804C118.026 230.855 120.944 227.548 123.924 225.188Z" fill="#D2C7CA"/>
<path d="M128.696 194.371C129.085 194.372 129.428 194.506 129.793 194.626C130.095 194.958 130.297 195.2 130.368 195.656C130.727 197.983 128.781 201.291 127.497 203.078C126.016 205.138 124.569 206.496 122.03 206.929C121.304 206.534 120.559 205.958 120.183 205.207C119.734 204.309 119.758 203.348 120.059 202.413C121.22 198.796 125.468 195.942 128.696 194.371Z" fill="#B3C09E"/>
<path d="M130.363 262.659C130.406 262.672 130.452 262.68 130.494 262.699C131.037 262.943 131.373 263.609 131.598 264.123C132.988 267.302 132.257 272.282 131.04 275.4C130.209 277.527 129.278 278.968 127.157 279.919C126.935 279.748 126.723 279.564 126.524 279.368C125.339 278.223 124.932 276.536 124.914 274.93C124.864 270.236 127.198 265.957 130.363 262.659Z" fill="#B3C09E"/>
<path d="M109.406 261.204C109.585 261.269 109.678 261.292 109.835 261.376C110.422 261.692 110.656 262.36 110.801 262.971C111.573 266.219 109.891 271.371 108.206 274.105C107.153 275.815 106.133 276.922 104.133 277.412C103.866 277.175 103.611 276.926 103.366 276.665C102.44 275.661 102.153 274.18 102.228 272.848C102.492 268.186 106.084 264.133 109.406 261.204Z" fill="#B3C09E"/>
<path d="M150.143 263.402C150.657 263.603 150.893 263.922 151.132 264.4C152.812 267.766 152.667 273.605 151.45 277.097C150.736 279.147 149.918 280.381 147.934 281.356C147.843 281.28 147.752 281.205 147.667 281.123C146.114 279.623 145.572 277.63 145.531 275.513C145.442 270.993 147.031 266.665 150.143 263.402Z" fill="#B3C09E"/>
<path d="M122.521 299.664C123.189 299.964 123.63 300.606 123.933 301.25C125.464 304.496 124.739 309.923 123.512 313.164C122.719 315.258 121.812 316.694 119.726 317.637C119.41 317.45 119.113 317.244 118.841 316.995C117.638 315.892 117.23 314.29 117.205 312.705C117.135 308.072 119.303 302.94 122.521 299.664Z" fill="#D2C7CA"/>
<path d="M98.1307 300.171C98.222 300.222 98.3156 300.27 98.405 300.325C99.1835 300.811 99.464 302.014 99.5978 302.873C100.271 307.196 99.1943 313.6 96.6156 317.117C95.8647 318.142 95.2176 318.563 93.9576 318.768C93.8713 318.682 93.7871 318.594 93.7052 318.504C92.3124 316.964 91.9461 315.03 92.0541 313.002C92.0717 312.699 92.0965 312.397 92.1284 312.095C92.1606 311.794 92.1999 311.493 92.2462 311.193C92.2927 310.893 92.3464 310.595 92.4073 310.298C92.4682 310.001 92.5362 309.705 92.6112 309.411C92.6862 309.117 92.7683 308.825 92.8574 308.535C92.9466 308.245 93.0426 307.958 93.1454 307.672C93.2483 307.387 93.358 307.104 93.4745 306.824C93.5911 306.544 93.7143 306.267 93.8441 305.993C93.9737 305.719 94.1099 305.448 94.2528 305.181C94.3957 304.913 94.5448 304.649 94.7003 304.389C94.8558 304.128 95.0174 303.872 95.1853 303.619C95.3532 303.367 95.527 303.119 95.7069 302.875C95.8865 302.63 96.072 302.391 96.2633 302.155C96.4545 301.92 96.6512 301.69 96.8537 301.464C97.0561 301.238 97.2638 301.018 97.4767 300.802C97.6896 300.586 97.9075 300.376 98.1307 300.171Z" fill="#D2C7CA"/>
<path d="M73.2033 299.198C73.3041 299.241 73.4068 299.282 73.506 299.329C74.1867 299.652 74.5305 300.358 74.7396 301.048C75.7739 304.466 74.3338 309.708 72.6977 312.754C71.64 314.723 70.621 315.928 68.436 316.583C67.9885 316.313 67.586 316.034 67.2513 315.626C66.368 314.547 66.1352 313.016 66.2418 311.658C66.6244 306.777 69.5808 302.297 73.2033 299.198Z" fill="#B3C09E"/>
<path d="M107.945 218.654C108.008 218.713 108.076 218.767 108.133 218.831C108.952 219.744 108.67 221.773 108.448 222.879C107.72 226.508 105.473 231.256 102.255 233.318C101.126 234.041 100.217 234.16 98.9075 233.883C98.5076 233.499 98.1201 233.112 97.8429 232.626C97.2052 231.51 97.2574 230.125 97.625 228.926C99.035 224.328 103.881 220.774 107.945 218.654Z" fill="#D2C7CA"/>
<path d="M146.198 299.898C147.017 300.388 147.442 301.116 147.777 301.986C149.291 305.914 148.722 311.898 146.973 315.67C146.264 317.202 145.492 318.093 143.887 318.688C143.525 318.387 143.153 318.08 142.837 317.729C141.344 316.076 141.17 313.254 141.334 311.154C141.659 306.992 142.95 302.673 146.198 299.898Z" fill="#D2C7CA"/>
<path d="M84.8795 365.401C84.9607 366.182 85.0592 366.656 85.5322 367.293C85.9771 367.548 86.0567 367.679 86.5756 367.591C85.5234 372.058 78.6033 389.991 79.514 392.746C78.2595 395.377 76.7308 397.985 75.902 400.783C75.1087 403.463 74.9336 406.486 73.8683 409.052C74.0787 393.884 79.4938 379.363 84.8795 365.401Z" fill="#596A6A"/>
<path d="M87.9316 253.655L88.5744 253.845C89.1482 254.548 89.3674 255.385 89.4877 256.269C90.0657 260.514 88.8132 266.52 86.1233 269.923C84.9389 271.422 83.8231 272.045 81.9274 272.276C81.551 271.922 81.1971 271.541 80.9032 271.115C79.8089 269.527 79.7841 267.313 80.1132 265.486C81.0056 260.529 83.8717 256.508 87.9316 253.655Z" fill="#B3C09E"/>
<path d="M259.07 84.9965C263.16 94.395 265.379 106.192 263.683 116.408C259.99 114.753 257.037 111.816 253.599 109.731C255.693 107.486 257.546 105.274 257.542 102.075L257.731 102.891L257.925 102.981C260.814 98.5662 259.311 90.0139 259.07 84.9965Z" fill="#B3C09E"/>
<path d="M212.349 173.872C214.064 175.602 216.306 176.951 218.224 178.474C221.755 181.283 225.207 184.186 228.58 187.185C229.332 187.848 230.083 188.661 230.963 189.137L166.526 188.48C167.454 188.177 168.381 187.761 169.331 187.553C179.255 185.377 202.331 186.644 209.246 179.95C210.752 178.492 212.067 176.251 212.102 174.107L212.349 173.872Z" fill="#B3C09E"/>
<path d="M143.968 173.613C149.62 173.652 154.767 174.939 158.841 179.137C159.431 179.745 159.997 180.395 160.53 181.055C162.017 183.436 162.963 185.704 163.464 188.476C163.347 192.82 163.069 196.374 160.738 200.172C160.428 200.555 160.107 200.922 159.682 201.183C159.119 201.53 158.408 201.481 157.801 201.281C153.09 199.724 148.174 190.731 146.091 186.463C144.884 183.991 141.411 177.183 142.57 174.536C142.872 173.847 143.319 173.822 143.968 173.613Z" fill="#D2C7CA"/>
<path d="M143.968 173.613C149.62 173.652 154.767 174.939 158.841 179.137C159.431 179.745 159.997 180.395 160.53 181.055C162.017 183.436 162.963 185.704 163.464 188.476C163.347 192.82 163.069 196.374 160.738 200.172C160.604 194.857 159.962 190.172 157.333 185.454C154.642 180.628 149.467 175.156 143.968 173.613Z" fill="#B3C09E"/>
<path d="M160.53 181.055C164.538 180.194 168.71 179.854 172.778 179.333C179.86 178.419 186.947 177.54 194.038 176.697C200.074 175.975 206.147 175.363 212.102 174.107C212.067 176.251 210.752 178.492 209.246 179.95C202.331 186.644 179.255 185.377 169.331 187.553C168.381 187.761 167.454 188.177 166.526 188.48L163.464 188.476C162.963 185.704 162.017 183.436 160.53 181.055Z" fill="#D2C7CA"/>
<path d="M162.682 390.165C162.734 390.066 162.791 389.972 162.839 389.87C163.716 388.066 163.381 384.847 163.711 382.798C165.144 373.892 171.387 365.303 179.831 361.927C182.077 361.032 189.244 360.254 190.511 359.074C188.693 369.826 182.011 381.713 173.081 388.109C171.49 389.246 166.939 392.256 164.95 391.857C164.751 391.815 164.67 391.772 164.466 391.697C164.057 393.148 159.845 404.002 159.267 404.584C159.03 404.855 158.766 405.09 158.5 405.336C157.728 405.345 157.497 405.071 156.893 404.656C158.035 402.996 158.603 399.966 159.342 398.034C160.38 395.378 161.493 392.755 162.682 390.165Z" fill="#718287"/>
<path d="M162.682 390.165L163.086 391.112L163.5 391.171C164.765 389.56 165.103 387.056 166.088 385.229C169.012 379.801 172.871 375.359 177.037 370.892C176.358 373.872 173.097 376.454 171.227 378.853C169.012 381.696 164.974 388.027 164.249 391.374L164.466 391.697C164.057 393.148 159.845 404.002 159.267 404.584C159.03 404.855 158.766 405.09 158.5 405.336C157.728 405.345 157.497 405.071 156.893 404.656C158.035 402.996 158.603 399.966 159.342 398.034C160.38 395.378 161.493 392.755 162.682 390.165Z" fill="#596A6A"/>
<path d="M192.798 368.235C194.721 370.222 199.044 370.562 201.621 371.65C207.781 374.245 213.579 378.732 216.123 385.092C218.056 389.926 218.106 395.776 216.03 400.577C216.068 402.09 217.044 404.424 218.033 405.561C217.604 406.143 217.495 406.385 216.819 406.679C216.388 406.617 215.96 406.578 215.549 406.424C214.675 405.934 214.039 403.672 213.66 402.705C213.415 402.907 213.182 403.051 212.852 403.054C210.06 403.071 205.111 399.038 203.114 397.129C195.302 389.655 192.991 378.654 192.798 368.235Z" fill="#718287"/>
<path d="M201.181 379.275C201.907 380.304 202.853 381.115 203.686 382.053C205.503 384.102 207.22 386.393 208.55 388.789C209.828 391.089 212.137 397.002 213.965 398.41C213.053 396.175 212.726 393.72 211.805 391.491C210.665 388.73 208.881 386.481 208.013 383.556C210.905 387.553 212.796 390.4 214.134 395.256C214.626 397.044 214.885 399.077 215.703 400.74L216.03 400.577C216.068 402.09 217.044 404.424 218.033 405.561C217.604 406.143 217.495 406.385 216.819 406.679C216.388 406.617 215.96 406.578 215.549 406.424C214.675 405.934 214.039 403.672 213.66 402.705C212.734 397.802 209.133 390.932 206.248 386.857C204.388 384.229 202.002 382.514 201.181 379.275Z" fill="#596A6A"/>
<path d="M251.88 403.849C251.853 396.998 254.021 391.302 258.86 386.422C259.362 385.926 259.876 385.442 260.402 384.971C260.929 384.501 261.468 384.044 262.018 383.602C262.568 383.16 263.129 382.732 263.702 382.321C264.274 381.907 264.856 381.508 265.449 381.125C266.042 380.741 266.644 380.374 267.256 380.023C267.868 379.67 268.488 379.333 269.117 379.013C269.746 378.695 270.383 378.392 271.028 378.105C271.673 377.817 272.324 377.547 272.983 377.294C274.1 376.853 275.242 376.412 276.415 376.147C278.78 375.611 283.534 375.497 285.222 373.666C284.305 377.399 282.683 380.964 280.986 384.399C277.303 391.854 273.008 398.933 265.753 403.348C263.633 404.639 256.25 408.542 254.02 407.934C253.82 407.878 253.741 407.832 253.536 407.744C252.709 408.875 251.227 412.107 250.108 412.679L249.549 412.833C248.821 412.63 248.518 412.042 248.098 411.457C249.498 408.757 251.949 407.176 251.88 403.849Z" fill="#718287"/>
<path d="M251.88 403.849L252.164 404.486C253.826 402.93 254.889 398.443 256.169 396.24C258.379 392.439 261.325 389.308 264.543 386.347C265.521 385.448 267.393 383.651 268.77 383.641C267.176 386.148 262.347 389.155 260.009 392.109C258.679 393.789 257.468 395.645 256.403 397.505C255.525 399.041 254.596 402.064 253.505 403.103C253.556 403.097 253.608 403.09 253.658 403.08C256.831 402.486 266.105 388.465 270.986 387.471L271.053 387.746C269.683 389.798 267.339 391.148 265.518 392.792C262.482 395.531 254.717 404.045 253.536 407.744C252.709 408.875 251.227 412.107 250.108 412.679L249.549 412.833C248.821 412.63 248.518 412.042 248.098 411.457C249.498 408.757 251.949 407.176 251.88 403.849Z" fill="#596A6A"/>
<path d="M206.464 92.3063C204.417 86.0875 203.461 79.9501 206.035 73.6702C208.403 67.8926 213.119 62.9644 218.909 60.591C224.762 58.1918 231.416 58.6481 237.174 61.1025C247.263 65.4025 255.056 74.9683 259.07 84.9965C259.311 90.0139 260.814 98.5662 257.924 102.981L257.731 102.891L257.542 102.075C257.345 99.5784 256.788 97.0507 256.09 94.6499C253.047 84.1925 246.136 73.5894 236.376 68.3269C232.377 66.1705 227.387 64.8456 222.917 66.2189C218.332 67.6272 214.792 71.388 212.611 75.5461C210.642 79.3007 210.47 82.4493 211.725 86.4591C212.245 87.6899 212.72 88.973 213.317 90.1669C211.955 92.5017 209.989 94.1025 208.461 96.2575C207.704 94.998 207.104 93.6286 206.464 92.3063Z" fill="#D2C7CA"/>
<path d="M211.725 86.459C212.245 87.6899 212.72 88.973 213.317 90.1669C211.955 92.5017 209.989 94.1024 208.461 96.2575C207.704 94.9979 207.104 93.6286 206.464 92.3062C207.923 89.7792 209.394 88.1821 211.725 86.459Z" fill="#B8A295"/>
<path d="M136.254 396.897C135.927 397.074 135.67 397.198 135.293 397.214C131.509 397.361 125.044 392.684 122.29 390.083C113.534 381.817 111.75 370.607 111.436 359.097C114.681 361.071 118.678 361.705 122.063 363.571C129.357 367.591 135.938 374.222 138.289 382.376C139.205 385.553 140.521 393.263 138.956 396.073C139.177 397.701 142.315 408.182 143.155 409.045C142.756 409.578 142.273 410.418 141.57 410.539C141.348 410.578 141.228 410.555 141.017 410.535C140.651 408.591 137.197 398.619 136.254 396.897Z" fill="#718287"/>
<path d="M122.184 372.977C123.435 374.68 125.136 376.137 126.44 377.866C130.191 382.837 133.048 388.24 135.805 393.792C136.376 394.939 136.954 396.495 138.258 396.933C137.342 395.629 135.252 388.259 134.18 385.873C132.393 381.899 128.578 378.422 127.793 374.127C133.787 381.36 135.223 386.275 138.173 394.975C138.384 395.596 138.366 395.789 138.956 396.073C139.177 397.701 142.316 408.182 143.155 409.045C142.756 409.578 142.273 410.418 141.57 410.539C141.348 410.578 141.228 410.555 141.017 410.535C140.651 408.591 137.197 398.619 136.254 396.897C136.536 394.318 129.514 383.876 127.853 381.563C125.887 378.827 123.183 376.232 122.184 372.977Z" fill="#596A6A"/>
<path d="M39.6751 340.507C39.7012 340.546 39.7263 340.582 39.7537 340.618C41.1598 342.458 45.9278 344.478 48.077 345.883C50.2007 347.275 52.3221 348.955 54.1076 350.756C54.3607 351.009 54.6111 351.264 54.8587 351.521C55.1062 351.78 55.3508 352.042 55.5926 352.305C55.8346 352.569 56.0736 352.835 56.3095 353.103C56.5455 353.373 56.7785 353.644 57.0085 353.917C57.2384 354.191 57.4653 354.468 57.6892 354.747C57.9132 355.026 58.134 355.307 58.3517 355.59C58.5694 355.875 58.784 356.162 58.9956 356.449C59.2069 356.737 59.4151 357.028 59.6202 357.322C59.8252 357.616 60.027 357.911 60.2256 358.208C60.4241 358.506 60.6194 358.806 60.8114 359.106C61.0034 359.409 61.192 359.713 61.3773 360.018C61.5625 360.325 61.7443 360.634 61.9226 360.943C62.1012 361.253 62.2763 361.565 62.4481 361.881C62.6197 362.195 62.7878 362.51 62.9524 362.826C63.117 363.144 63.2781 363.464 63.4357 363.787C63.5934 364.107 63.7476 364.429 63.8983 364.754C64.0487 365.079 64.1957 365.405 64.3392 365.734C64.4825 366.061 64.6223 366.39 64.7584 366.721C64.8945 367.053 65.0269 367.385 65.1557 367.718C65.2846 368.052 65.4097 368.387 65.5311 368.725C65.6526 369.06 65.7704 369.398 65.8843 369.738C65.9983 370.078 66.1085 370.419 66.2151 370.761C66.3216 371.101 66.4244 371.443 66.5233 371.787C66.6222 372.131 66.7175 372.477 66.809 372.823C66.9003 373.17 66.9879 373.517 67.0716 373.866C67.1553 374.212 67.2352 374.561 67.3113 374.912C67.3874 375.26 67.4597 375.611 67.5282 375.964C67.5965 376.315 67.661 376.667 67.7216 377.02C67.7823 377.373 67.8391 377.726 67.8919 378.079C67.9447 378.434 67.9937 378.789 68.0387 379.144C68.0837 379.497 68.1249 379.852 68.1623 380.209C68.1995 380.565 68.2328 380.921 68.2621 381.278C68.5824 384.873 68.1427 388.563 68.7964 392.109C69.1995 394.299 70.4928 396.338 71.2528 398.427C72.4965 401.839 73.1103 405.486 73.6658 409.065L72.8027 409.048C71.5568 408.398 71.0669 407.529 70.4546 406.329C70.4207 406.247 70.3858 406.169 70.3529 406.091C68.8437 402.424 69.466 398.58 66.9356 394.769C64.6269 391.295 59.628 389.465 56.3888 386.828C42.6309 375.631 39.3952 357.335 39.6751 340.507Z" fill="#596A6A"/>
<path d="M147.794 364.957C146.684 364.31 146.04 361.309 145.705 360.041C142.65 348.468 141.453 335.611 147.742 324.839C150.97 319.308 156.145 315.004 161.809 312.128C166.622 326.598 166.788 342.05 159.902 355.917C158.487 358.767 154.391 365.718 151.445 366.81C151.253 366.882 151.143 366.885 150.931 366.918C149.358 368.941 150.378 390.282 150.632 394.351C150.85 397.855 151.331 401.371 151.449 404.875C150.995 405.398 150.974 405.594 150.265 405.669L149.537 405.345C148.16 402.956 147.775 382.105 147.842 377.945C147.892 374.84 148.706 367.62 147.794 364.957Z" fill="#718287"/>
<path d="M150.753 334.974C150.57 342.344 146.949 361.571 148.995 367.055L149.355 367.346C150.333 365.953 149.719 361.741 149.906 359.924C150.787 351.377 153.287 334.974 159.301 328.663C158.324 332.173 156.52 335.288 155.313 338.7C152.898 345.53 150.055 359.528 150.488 366.689C150.624 366.767 150.777 366.885 150.931 366.918C149.358 368.941 150.378 390.282 150.632 394.351C150.85 397.855 151.331 401.371 151.449 404.875C150.995 405.398 150.974 405.594 150.265 405.669L149.537 405.345C148.16 402.956 147.775 382.105 147.842 377.945C147.892 374.84 148.706 367.62 147.794 364.957C148.491 363.79 148.033 352.142 148.207 349.629C148.559 344.54 149.64 339.919 150.753 334.974Z" fill="#596A6A"/>
<path d="M276.976 126.151C281.029 128.797 284.925 131.683 288.838 134.531C291.789 136.679 294.848 138.78 297.631 141.145L261.615 183.891C258.637 187.399 255.619 190.873 252.56 194.311C250.477 196.678 248.24 199.041 246.433 201.627C241.351 197.649 236.49 193.397 231.436 189.383C242.707 186.86 250.432 183.098 258.776 174.971C268.199 165.794 276.48 152.74 277.37 139.31C277.663 134.879 276.913 130.565 276.976 126.151Z" fill="#B3C09E"/>
<path d="M84.8795 365.401C84.904 365.303 84.9314 365.208 84.9526 365.11C85.0801 364.525 83.9855 357.636 83.9141 356.217C83.264 343.354 87.4733 330.506 98.2881 322.865C103.009 319.529 108.109 318.024 113.692 316.817C115.141 330.532 112.585 345.563 103.733 356.538C100.225 360.888 95.9012 363.747 90.9199 366.163C89.795 366.708 88.1869 367.568 86.9501 367.617C86.7417 367.623 86.7495 367.617 86.5756 367.591C86.0567 367.679 85.9771 367.548 85.5322 367.293C85.0593 366.656 84.9608 366.182 84.8795 365.401Z" fill="#718287"/>
<path d="M99.2292 331.34C99.4321 332.418 98.1241 334.006 97.5628 334.935C92.209 343.772 90.0135 353.322 87.0976 363.081C87.6348 362.809 87.896 362.46 88.1958 361.947C89.4855 359.747 90.3932 357.266 91.586 354.998C93.5261 351.312 100.1 340.085 103.565 338.056C103.919 337.85 103.93 337.876 104.32 337.968L104.31 338.556C104.045 338.958 103.815 339.363 103.367 339.579C103.274 339.625 103.179 339.664 103.086 339.706C102.268 341.648 100.192 343.68 98.9112 345.409C97.1879 347.728 95.5731 350.119 94.0669 352.583C93.0645 354.256 92.0769 355.976 91.2605 357.75C90.1659 360.126 89.2242 363.372 87.5891 365.381C87.2443 365.803 87.2182 365.882 86.685 365.934C86.4149 365.352 86.4315 364.823 86.4756 364.195C87.0261 356.345 93.3937 336.458 99.2292 331.34Z" fill="#596A6A"/>
<path d="M213.317 90.1668C213.908 89.1566 214.648 88.1931 215.406 87.3042C216.65 85.8452 218.842 84.0029 220.883 84.0046C221.608 84.0052 221.824 84.1886 222.286 84.6703C222.638 85.8018 222.138 87.248 221.63 88.2696C223.183 89.4148 224.775 90.476 226.393 91.5267C216.399 110.47 206.274 127.296 190.34 142.005C187.838 144.315 185.215 147.11 182.3 148.881C180.223 147.34 178.266 145.547 176.278 143.888C176.049 143.994 175.819 144.096 175.588 144.195C174.599 144.617 172.758 145.224 171.719 144.729C171.244 144.503 171.212 144.242 171.026 143.798C171.114 142.796 172.009 141.708 172.593 140.919C175.628 136.817 179.127 132.992 182.328 129.012C191.072 118.139 199.915 107.284 208.461 96.2575C209.989 94.1024 211.955 92.5017 213.317 90.1668Z" fill="#B3C09E"/>
<path d="M213.317 90.1668C213.908 89.1566 214.648 88.1931 215.406 87.3042C216.65 85.8452 218.842 84.0029 220.883 84.0046C221.608 84.0052 221.824 84.1886 222.286 84.6703C222.638 85.8018 222.138 87.248 221.63 88.2696C218.895 90.929 214.096 98.2714 211.401 101.725C205.089 109.816 198.69 117.838 192.205 125.79C187.123 132.014 182.094 138.327 176.278 143.888C176.049 143.994 175.819 144.096 175.588 144.195C174.599 144.617 172.758 145.224 171.719 144.729C171.244 144.503 171.212 144.242 171.026 143.798C171.114 142.796 172.009 141.708 172.593 140.919C175.628 136.817 179.127 132.992 182.328 129.012C191.072 118.139 199.915 107.284 208.461 96.2575C209.989 94.1024 211.955 92.5017 213.317 90.1668Z" fill="#D2C7CA"/>
<path d="M196.36 310.804C209.618 319.468 220.954 327.401 224.403 343.841C225.431 348.74 223.991 352.309 224.611 356.224C224.958 358.407 225.931 360.613 226.684 362.692C227.967 366.231 229.304 369.774 230.255 373.425C231.38 377.745 232.056 386.52 233.558 389.972C234.944 387.324 235.257 383.481 236.138 380.569C237.189 377.095 239.242 373.428 239.835 369.895C237.953 366.996 238.738 361.169 239.426 357.93C241.765 346.913 250.845 337.997 259.964 332.098C263.529 329.791 267.361 328.029 271.233 326.314C269.077 341.563 266.28 355.106 253.337 364.865C250.121 367.29 246.071 370.777 242.186 371.905C238.944 380.497 233.183 396.832 234.16 405.888C233.813 405.999 233.413 406.149 233.05 406.172C232.334 406.221 231.972 405.764 231.484 405.329C232.579 391.384 229.032 377.105 224.37 364.064C223.593 361.888 222.99 359.319 221.851 357.319L221.563 357.276C216.456 356.508 210.546 350.246 207.603 346.171C200.259 336 198.404 322.878 196.36 310.804Z" fill="#596A6A"/>
<path d="M226.392 91.5267L253.599 109.731C257.037 111.816 259.99 114.753 263.683 116.408C267.012 120.037 272.881 123.206 276.976 126.151C276.913 130.565 277.663 134.879 277.37 139.31C276.48 152.74 268.199 165.794 258.776 174.971C250.432 183.098 242.707 186.86 231.436 189.383L230.963 189.137C230.083 188.661 229.332 187.848 228.579 187.185C225.207 184.186 221.755 181.283 218.224 178.474C216.306 176.951 214.064 175.602 212.349 173.872C210.478 171.43 205.802 168.378 203.218 166.242C196.233 160.47 189.398 154.514 182.3 148.881C185.215 147.11 187.838 144.316 190.34 142.005C206.274 127.296 216.399 110.47 226.392 91.5267Z" fill="#D2C7CA"/>
<path d="M79.514 392.746C79.5603 392.727 79.6066 392.714 79.6526 392.694C81.7659 391.838 83.6277 389.9 85.8023 388.896C92.8818 385.631 101.882 387.19 108.837 390.017C116.127 392.982 122.504 397.802 128.081 403.303C129.417 404.62 130.767 405.973 131.972 407.414C133.187 408.865 135.632 413.366 137.116 413.987C138.344 413.79 139.978 412.098 140.701 411.111C140.841 410.921 140.921 410.751 141.017 410.535C141.228 410.555 141.348 410.578 141.57 410.539C142.273 410.418 142.756 409.578 143.155 409.045C143.998 409.185 144.955 408.578 145.711 408.215C146.958 407.617 149.047 406.734 149.537 405.345L150.265 405.669C150.974 405.594 150.995 405.398 151.449 404.875C152.218 405.437 152.765 405.483 153.711 405.499C154.789 405.519 156.092 405.44 156.893 404.656C157.497 405.071 157.728 405.345 158.5 405.336C158.766 405.09 159.03 404.855 159.267 404.584L159.441 405.479C160.792 406.028 169.662 408.947 170.511 408.842L170.595 408.738C173.488 405.136 176.49 399.551 181.614 398.972C183.879 398.717 184.492 400.665 186.158 400.731C186.242 400.708 186.326 400.688 186.41 400.662C187.442 400.355 188.421 399.283 189.42 398.776C192.973 396.975 197.977 398.851 201.268 400.495C203.95 401.832 212.1 408.251 214.465 407.535C214.946 407.388 215.158 407.215 215.404 406.767C215.486 406.617 215.498 406.568 215.549 406.424C215.96 406.577 216.388 406.617 216.819 406.679C217.495 406.385 217.604 406.143 218.033 405.561L218.554 405.947C220.901 406.342 223.81 405.675 226.24 405.636C227.662 405.613 229.473 405.979 230.832 405.741C230.979 405.715 231.339 405.42 231.484 405.329C231.972 405.764 232.334 406.221 233.05 406.172C233.413 406.149 233.813 405.999 234.16 405.888C235.207 406.81 242.139 409.078 244.022 409.947C244.844 410.323 246.896 411.555 247.703 411.503C247.835 411.493 247.97 411.49 248.098 411.457C248.518 412.042 248.821 412.63 249.549 412.833L250.108 412.679C251.031 414.17 252.916 415.235 254.286 416.304C259.065 420.026 263.996 425.298 265.301 431.393C265.832 433.877 265.554 436.345 264.139 438.488C262.692 440.681 259.883 441.554 257.435 442.021C249.02 443.626 239.768 442.874 231.211 442.94C215.767 443.092 200.322 443.163 184.877 443.152L96.1504 443.169C79.8486 443.188 63.5156 443.515 47.2181 443.201C45.6743 443.169 42.5391 443.27 41.3323 442.378C41.269 442.332 41.21 442.28 41.148 442.231C41.0221 442.133 40.893 442.038 40.7693 441.936C38.3107 439.92 37.6182 436.299 37.353 433.302C36.6775 425.67 38.2415 416.931 43.2903 410.97C47.7236 405.734 56.8444 401.492 63.7371 403.711C65.6742 404.332 68.5429 406.486 70.4546 406.329C71.0668 407.529 71.5567 408.398 72.8027 409.048L73.6657 409.065L73.8683 409.052C74.9336 406.486 75.1087 403.463 75.902 400.783C76.7308 397.985 78.2595 395.377 79.514 392.746Z" fill="#B8A295"/>
<path d="M113.137 399.678C114.038 400.339 114.166 401.888 114.569 402.904L114.642 403.087C114.987 403.27 115.267 403.401 115.659 403.453C117.66 403.724 120.231 403.411 121.837 402.143C121.695 402.358 121.544 402.567 121.403 402.783C120.225 404.597 117.143 406.091 115.447 407.617C114.271 408.676 113.047 410.617 111.649 411.251C111.034 410.761 110.694 409.865 110.33 409.176C109.363 408.862 108.25 406.898 107.529 406.117C105.696 404.133 103.059 402.803 101.598 400.571C101.879 400.829 102.192 401.113 102.528 401.296C104.237 402.228 109.796 403.911 111.5 403.401C112.348 402.613 112.761 400.783 113.137 399.678Z" fill="#B3C09E"/>
<path d="M158.309 415.833C159.422 416.676 159.779 418.288 160.225 419.559C160.362 419.608 160.499 419.66 160.638 419.699C162.326 420.186 167.199 418.869 168.672 417.964C168.548 418.183 168.548 418.193 168.419 418.379C166.834 420.664 163.606 421.556 161.86 423.83C161.003 424.945 160.255 426.795 158.756 427.089L158.249 427.259C156.793 426.076 155.831 424.373 154.509 423.046C152.771 421.304 149.726 419.798 148.581 417.644C149.056 417.987 149.545 418.304 150.095 418.516C151.699 419.131 155.318 420.307 156.916 419.579C157.69 418.677 157.978 416.974 158.309 415.833Z" fill="#B3C09E"/>
<path d="M117.323 418.85C118.26 419.902 118.626 421.291 119.084 422.598C119.324 422.683 119.495 422.745 119.753 422.755C121.665 422.824 125.242 421.994 126.708 420.768C125.485 423.01 122.779 424.589 121.001 426.465C119.742 427.795 118.644 429.704 117.232 430.802L116.724 430.259C115.274 429.596 114.235 427.269 113.087 426.128C111.274 424.327 108.41 423.393 107.092 421.118C107.138 421.147 107.183 421.177 107.229 421.203C108.892 422.157 113.856 423.275 115.694 422.749C116.439 421.86 116.869 419.977 117.323 418.85Z" fill="#B3C09E"/>
<path d="M84.9878 402.407C85.9552 403.234 85.9601 404.695 86.6196 405.741C88.7323 405.813 93.3721 404.92 95.1174 403.708C93.5802 406.47 89.8768 407.597 87.8946 410.055C87.03 411.127 86.4011 412.97 85.0286 413.467C84.7539 413.689 84.6284 413.735 84.2989 413.836C83.1234 412.277 81.9205 410.751 80.5793 409.329C79.0094 407.666 76.688 406.084 75.6632 404.035C76.8361 404.692 82.1286 406.283 83.3821 406.224C84.0755 405.329 84.5507 403.509 84.9878 402.407Z" fill="#B3C09E"/>
<path d="M88.8151 418.804C89.8905 419.941 89.6795 421.736 90.5376 423.01C90.7183 423.013 90.899 423.02 91.0791 423.01C92.9784 422.896 97.2134 422.18 98.5422 420.739C97.3363 423.125 94.6784 425.001 92.8609 426.981C91.6583 428.292 90.5735 429.707 89.3742 431.024L89.0372 431.04L88.5839 430.491C87.4152 430.138 86.1829 428.132 85.4839 427.164C83.4147 424.308 80.0443 423.363 78.1294 420.5C78.5296 420.869 78.935 421.271 79.4527 421.471C81.2672 422.16 85.8 423.53 87.4491 422.752C88.1419 421.866 88.472 419.912 88.8151 418.804Z" fill="#B3C09E"/>
<path d="M184.351 408.793C185.312 409.8 185.368 411.196 185.838 412.441L185.954 412.745C186.082 412.784 186.281 412.849 186.424 412.866C188.472 413.111 192.458 411.973 194.056 410.64C193.935 410.849 193.809 411.048 193.683 411.254C193.337 411.823 192.997 412.196 192.511 412.647C191.018 414.023 189.459 415.343 188.092 416.853C186.978 418.082 186.022 419.484 184.805 420.611L184.27 420.474C184.163 420.454 184.057 420.428 183.954 420.399C183.274 420.186 182.265 418.513 181.722 417.931C179.468 415.503 175.747 413.349 174.229 410.457C174.59 410.741 174.969 411.035 175.381 411.245C176.84 411.977 181.126 412.947 182.724 412.444C183.474 411.81 184.003 409.731 184.351 408.793Z" fill="#B3C09E"/>
<path d="M59.0272 416.369C59.977 417.203 60.3544 418.49 60.8417 419.628C61.0759 419.716 61.3332 419.798 61.5837 419.817C63.698 419.958 68.8955 418.784 70.4634 417.506C68.7527 420.432 65.4443 421.383 63.1187 423.674C62.1001 424.68 60.8551 427.213 59.582 427.631L59.1981 427.645C58.1661 427.184 56.7809 424.733 55.8911 423.817C53.6812 421.543 49.9143 419.807 48.2515 417.373C48.6559 417.745 49.0659 418.118 49.5868 418.317C51.4382 419.02 55.8353 420.317 57.5581 419.559C58.2118 418.915 58.6661 417.252 59.0272 416.369Z" fill="#B3C09E"/>
<path d="M205.633 416.14C206.588 417.147 207.034 418.598 207.567 419.86C207.674 419.886 207.86 419.941 207.981 419.948C209.821 420.059 216.315 417.977 217.563 416.748C217.409 416.977 217.248 417.196 217.088 417.422C215.436 419.735 212.339 421.046 210.511 423.432C209.645 424.566 208.5 426.952 207.094 427.337C206.914 427.635 206.702 427.85 206.46 428.096C205.102 427.677 203.864 425.314 203.066 424.167C200.921 421.079 197.146 419.961 195.182 416.833C195.705 417.366 196.171 417.719 196.868 418C198.788 418.771 202.396 420.196 204.345 419.379C204.945 418.618 205.295 417.072 205.633 416.14Z" fill="#B3C09E"/>
<path d="M230.793 419.797C231.891 420.869 232.086 422.644 233.19 423.517C234.351 422.984 234.581 421.301 235.758 420.817C236.325 421.376 236.308 422.347 236.48 423.105C236.643 423.144 236.817 423.193 236.985 423.213C239.018 423.471 242.534 422.961 244.15 421.66C241.956 424.344 238.336 426.314 235.617 428.527C235.082 429.857 234.287 431.037 233.075 431.825C233.055 431.818 233.034 431.815 233.015 431.808C232.787 431.71 223.567 422.092 223.336 421.641C225.029 422.34 228.211 423.556 230.01 422.968C230.543 422.275 230.583 420.683 230.793 419.797Z" fill="#B3C09E"/>
</svg>
