<svg width="334" height="468" viewBox="0 0 334 468" fill="none" xmlns="http://www.w3.org/2000/svg">
<path d="M110.339 199.535C113.347 203.415 115.155 207.267 116.51 211.946C114.164 213.768 112.081 216.214 110.185 218.487C108.42 215.715 106.5 213.378 104.245 210.987C105.912 206.819 107.699 203.176 110.339 199.535Z" fill="#718287"/>
<path d="M157.746 109.484L113.673 109.431C106.149 109.438 98.486 109.755 90.9759 109.446C90.7133 109.436 90.5375 109.339 90.3275 109.194C90.2319 108.982 90.1445 108.797 90.1259 108.561C90.0773 107.942 90.152 107.249 90.5101 106.737C98.665 106.49 106.884 106.714 115.045 106.713C125.885 106.711 136.749 106.549 147.587 106.717L157.802 106.698L157.746 109.484Z" fill="#718287"/>
<path d="M154.191 132.372C156.923 132.279 163.058 131.565 165.413 132.667C166.019 132.951 166.133 133.146 166.378 133.75C166.253 134.315 166.225 134.444 165.83 134.898C163.608 135.244 161.053 134.97 158.787 134.998C152.031 135.038 145.275 135.044 138.518 135.016L103.384 134.988C98.2665 134.985 93.0706 135.206 87.9628 135.048C86.83 135.013 85.7879 134.882 84.7904 134.309L84.6991 133.705C84.7402 133.661 84.7777 133.613 84.8224 133.571C86.603 131.921 90.03 132.394 92.2209 132.513L132.581 132.518C139.708 132.515 147.095 132.887 154.191 132.372Z" fill="#718287"/>
<path d="M91.5327 204.57C93.6059 205.843 95.5221 207.392 97.3157 209.03C94.8783 214.648 95.3584 222.566 97.5613 228.096C98.3761 230.141 99.4678 232.346 100.868 234.06C102.121 235.595 103.496 236.928 104.547 238.627C100.373 235.656 96.0202 233.65 91.2424 231.846L91.1276 231.867C87.1529 227.334 84.554 221.649 83.1827 215.816C86.0071 216.428 88.7557 217.119 91.5105 217.997C90.7952 213.411 90.7851 209.148 91.5327 204.57Z" fill="#718287"/>
<path d="M85.7468 140.315C95.0025 139.813 104.376 140.244 113.647 140.262L166.075 140.337L166.137 143.482C163.121 143.47 156.181 143.004 153.678 143.687C149.525 144.133 145.007 143.9 140.811 143.93C130.295 144.005 119.776 143.766 109.259 143.721C105.772 143.706 87.1108 144.137 85.1946 143.544C85.8456 142.674 85.7266 141.385 85.7468 140.315Z" fill="#B8A295"/>
<path d="M204.682 362.376C207.585 364.501 216.274 362.053 217.286 362.657C218.759 363.532 226.596 363.476 228.333 362.944C228.536 362.879 228.726 362.801 228.919 362.716L229.15 362.611C229.205 362.634 229.259 362.657 229.314 362.68C231.21 363.395 234.715 362.625 235.72 364.831C236.322 366.149 235.994 368.567 235.451 369.876C235.121 370.673 234.523 371.26 233.7 371.531C233.119 371.723 232.647 371.671 232.07 371.515C231.299 371.759 202.89 372.03 201.283 371.73C201.013 371.815 200.804 371.828 200.53 371.769C199.549 371.554 198.687 370.852 198.172 370.007C197.329 368.626 197.145 367.014 197.539 365.454C198.434 361.903 202.362 364.119 204.439 362.579C204.523 362.517 204.601 362.445 204.682 362.376Z" fill="#D8D4EE"/>
<path d="M211.55 241.541C218.486 242.562 225.671 241.641 232.657 241.767C234.18 241.709 237.455 241.238 238.619 242.388C239.421 243.18 239.571 244.806 239.515 245.885C239.455 247.048 239.244 248.33 238.458 249.228C238.122 249.381 237.828 249.518 237.466 249.607C237.304 250.111 237.121 250.617 237.001 251.133C234.376 251.134 206.859 251.057 205.942 251.525C205.781 250.833 205.56 250.168 205.34 249.494C205.175 249.422 205.119 249.407 204.96 249.285C204.123 248.644 203.924 247.129 203.795 246.143C203.624 244.831 203.525 243.166 204.362 242.064C206.134 241.076 209.497 241.549 211.55 241.541Z" fill="#D1C6C7"/>
<path d="M205.34 249.494C207.616 249.025 235.131 248.917 237.466 249.607C237.304 250.111 237.121 250.617 237.001 251.133C234.376 251.134 206.859 251.057 205.942 251.525C205.781 250.833 205.56 250.168 205.34 249.494Z" fill="#B3C09E"/>
<path d="M92.3194 120.42C92.2933 119.799 92.414 119.204 91.883 118.769C90.865 117.935 89.9794 117.665 89.5574 116.253C89.6494 115.656 89.7482 115.482 90.1631 115.043C97.4399 114.501 105.825 114.803 113.18 114.802L157.641 114.963L157.622 117.929L154.152 117.889L154.187 120.785L153.938 120.226C151.711 120.284 149.496 120.543 147.262 120.58C142.504 120.659 137.718 120.417 132.954 120.414L92.3194 120.42Z" fill="#718287"/>
<path d="M211.55 241.541C208.78 236.207 206.423 231.223 208.392 225.098C208.463 224.87 208.54 224.645 208.622 224.421C208.705 224.197 208.793 223.975 208.886 223.756C208.98 223.536 209.079 223.319 209.183 223.105C209.288 222.89 209.397 222.679 209.512 222.47C209.627 222.261 209.748 222.055 209.873 221.852C209.998 221.649 210.129 221.449 210.264 221.252C210.399 221.056 210.54 220.863 210.685 220.674C210.83 220.485 210.979 220.299 211.134 220.117C211.288 219.935 211.447 219.757 211.61 219.583C211.774 219.409 211.941 219.24 212.113 219.074C212.285 218.909 212.46 218.748 212.64 218.591C212.82 218.434 213.004 218.282 213.192 218.135C213.379 217.987 213.57 217.845 213.765 217.707C213.959 217.569 214.157 217.436 214.359 217.308C214.56 217.18 214.764 217.057 214.972 216.939C215.179 216.822 215.389 216.709 215.603 216.602C219.233 214.791 223.834 214.456 227.677 215.772C227.882 215.84 228.084 215.913 228.285 215.991C228.486 216.07 228.684 216.153 228.881 216.241C229.078 216.33 229.272 216.423 229.464 216.521C229.656 216.619 229.845 216.722 230.032 216.829C230.219 216.937 230.402 217.049 230.584 217.166C230.765 217.283 230.943 217.404 231.118 217.53C231.293 217.656 231.465 217.786 231.633 217.92C231.802 218.055 231.966 218.193 232.128 218.336C232.29 218.479 232.447 218.626 232.602 218.776C232.756 218.927 232.906 219.081 233.052 219.239C233.199 219.398 233.341 219.56 233.479 219.725C233.618 219.89 233.752 220.059 233.882 220.231C234.011 220.403 234.137 220.579 234.258 220.757C234.379 220.935 234.495 221.117 234.607 221.301C234.719 221.485 234.826 221.672 234.929 221.862C235.031 222.051 235.129 222.244 235.221 222.438C237.227 226.587 237.145 231.66 235.605 235.942C234.856 238.025 233.78 239.872 232.657 241.767C225.671 241.641 218.486 242.562 211.55 241.541Z" fill="#718287"/>
<path d="M201.283 371.73C202.89 372.03 231.299 371.759 232.07 371.515C231.137 375.783 230.963 380.434 230.452 384.788C230.041 388.289 229.283 392.01 229.164 395.508C228.569 396.213 228.071 396.269 227.162 396.347C224.518 396.576 221.748 396.311 219.088 396.318C215.824 396.324 207.233 397.144 204.634 396.05L204.206 395.6C204.247 392.803 203.632 389.667 203.267 386.886L201.283 371.73Z" fill="#D1C6C7"/>
<path d="M205.942 251.525C206.859 251.057 234.376 251.134 237.001 251.133C235.859 259.94 234.625 268.734 233.3 277.516C229.944 277.317 211.088 277.857 210.05 277.402C208.637 268.783 207.268 260.157 205.942 251.525Z" fill="#D1C6C7"/>
<path d="M207.219 339.156C208.198 339.424 209.419 339.038 210.315 338.634L210.538 337.978C212.121 338.174 213.996 338.686 215.376 337.655C215.856 337.296 216.343 336.757 216.627 336.232C217.179 336.875 217.625 337.554 218.486 337.766C218.589 337.805 218.69 337.847 218.794 337.883C219.515 338.121 225.472 338.49 226.708 338.565C226.863 338.9 227.024 339.232 227.191 339.561C227.696 340.543 229.301 341.512 230.118 342.328C233.983 346.179 235.091 350.925 233.609 356.088C232.928 358.46 231.909 361.051 229.689 362.399C229.513 362.507 229.346 362.556 229.15 362.611L228.919 362.716C228.726 362.801 228.536 362.879 228.333 362.944C226.596 363.476 218.759 363.532 217.286 362.657C216.274 362.053 207.585 364.501 204.682 362.376C202.374 361.273 201.409 358.865 200.624 356.603C199.773 354.149 199.841 348.692 201.001 346.329C202.49 343.297 205.55 341.865 207.219 339.156Z" fill="#718287"/>
<path d="M92.3195 120.42L132.954 120.414C137.719 120.417 142.504 120.659 147.262 120.58C149.496 120.543 151.711 120.284 153.938 120.226L154.187 120.785L154.191 132.372C147.095 132.887 139.708 132.515 132.581 132.518L92.2209 132.513C92.6629 128.497 92.3377 124.451 92.3195 120.42Z" fill="#D1C6C7"/>
<path d="M90.8304 92.364L147.589 92.3535L147.587 106.717C136.749 106.549 125.885 106.711 115.045 106.713C106.884 106.714 98.6651 106.49 90.5101 106.737C91.5203 104.463 90.8813 95.3436 90.8304 92.364Z" fill="#D1C6C7"/>
<path d="M85.1946 143.544C87.1109 144.137 105.772 143.706 109.259 143.721C119.776 143.766 130.295 144.005 140.811 143.93C145.007 143.9 149.525 144.133 153.678 143.687C153.67 148.387 153.58 153.107 153.719 157.805C146.295 157.292 138.671 157.69 131.224 157.663C115.603 157.567 99.9812 157.577 84.3596 157.692C84.433 155.286 83.8609 145.096 84.433 143.723L85.1946 143.544Z" fill="#718287"/>
<path d="M97.3157 209.03C98.0408 208.183 98.4145 207.095 98.849 206.08C100.762 207.583 102.613 209.177 104.245 210.987C106.5 213.378 108.42 215.715 110.185 218.487C112.08 216.214 114.164 213.768 116.51 211.946C119.247 210.263 121.751 208.242 124.663 206.848C125.54 211.72 124.878 216.001 124.72 220.861C128.722 218.065 132.602 215.987 137.13 214.165C136.736 219.316 135.801 223.869 133.414 228.53C136.306 228.248 139.23 227.797 142.137 227.824C139.05 234.886 133.465 239.65 126.394 242.475C121.892 243.337 101.156 242.981 96.4618 242.207C89.4018 239.426 83.228 235.944 77.8762 230.488C82.3774 230.569 86.6887 231.188 91.1276 231.867L91.2424 231.846C96.0201 233.65 100.373 235.656 104.547 238.627C103.496 236.928 102.121 235.595 100.868 234.06C99.4678 232.346 98.3761 230.141 97.5613 228.096C95.3583 222.566 94.8782 214.648 97.3157 209.03Z" fill="#B8A295"/>
<path d="M124.72 220.861C128.722 218.065 132.602 215.987 137.13 214.165C136.736 219.316 135.801 223.869 133.414 228.53C128.051 229.853 123.319 232.32 119.025 235.765C121.64 230.99 123.273 226.094 124.72 220.861Z" fill="#718287"/>
<path d="M96.4618 242.207C101.156 242.981 121.892 243.337 126.394 242.475C129.456 243.777 131.337 245.487 132.615 248.614C135.107 254.712 134.955 264.219 132.405 270.287C131.246 273.048 128.991 275.282 126.843 277.307C123.078 276.533 118.723 276.914 114.869 276.915C108.403 276.917 101.827 276.732 95.3831 277.332C94.7455 276.875 94.131 276.379 93.5295 275.876C89.5597 272.556 87.7171 267.604 87.2768 262.559C86.6616 255.514 87.6258 248.036 92.3207 242.473C93.7043 242.451 95.0834 242.32 96.4618 242.207Z" fill="#D1C6C7"/>
<path d="M65.0013 396.116C65.8223 396.435 66.6119 396.448 67.4828 396.478C70.9445 396.589 74.4355 396.432 77.9001 396.419L99.0363 396.315C104.661 396.256 110.484 396.703 116.079 396.253C116.923 396.187 117.094 396.119 117.621 395.492C118.67 396.589 121.158 396.39 122.666 396.426C125.604 396.501 128.538 396.272 131.475 396.285C134.143 396.295 136.881 396.576 139.538 396.386C140.166 396.344 141.238 396.305 141.706 395.861C141.768 395.802 141.822 395.734 141.88 395.672C142.733 396.364 143.532 396.337 144.61 396.386C148.615 396.559 152.67 396.285 156.682 396.259L178.41 396.272L194.682 396.269C197.277 396.272 200.042 396.497 202.611 396.223C203.261 396.155 203.675 395.988 204.205 395.6L204.634 396.05C207.233 397.144 215.824 396.324 219.088 396.318C221.748 396.311 224.518 396.576 227.162 396.347C228.071 396.269 228.569 396.213 229.164 395.509C229.329 395.691 229.312 395.695 229.559 395.845C230.327 396.311 231.883 396.236 232.776 396.262C239.604 396.452 246.451 396.04 253.282 396.106C255.011 396.122 259.552 396.729 260.917 396.429C261.022 397.014 261.109 397.602 261.179 398.191C261.47 400.724 261.845 408.52 260.351 410.4C258.097 410.883 247.479 410.328 244.134 410.302C233.457 410.261 222.78 410.292 212.103 410.394L130.898 410.469C116.887 410.536 102.878 410.522 88.8679 410.426C81.6885 410.413 74.4873 410.59 67.3122 410.43C66.4939 410.413 65.8656 410.43 65.1451 409.992C64.8581 405.417 64.9997 400.707 65.0013 396.116Z" fill="#B3C09E"/>
<path d="M95.3831 277.332C101.827 276.732 108.403 276.917 114.869 276.915C118.723 276.914 123.078 276.533 126.843 277.307C130.202 277.934 133.932 277.616 137.345 277.586L153.556 277.484L195.548 277.413C200.356 277.375 205.26 277.601 210.05 277.402C211.088 277.857 229.944 277.317 233.3 277.516C238.715 277.728 257.086 276.571 260.801 278.065C261.172 278.448 261.329 278.772 261.461 279.292C262.007 281.441 261.916 289.618 260.847 291.377C259.826 291.931 258.647 291.932 257.51 291.961C251.594 292.11 245.622 291.826 239.696 291.829L194.004 291.83L65.1128 291.797L65.1288 277.523C74.8826 277.57 85.7744 278.134 95.3831 277.332Z" fill="#B3C09E"/>
<path d="M84.3595 157.692C99.9812 157.577 115.603 157.567 131.224 157.663C138.671 157.69 146.295 157.292 153.718 157.805C156.536 158.401 162.167 157.984 165.345 157.982C175.209 157.918 185.073 157.905 194.937 157.943L218.213 157.896C222.332 157.9 226.55 158.133 230.659 157.966C236.455 157.822 242.286 157.94 248.085 157.936C251.822 157.933 255.777 157.677 259.487 158.044C259.947 158.089 260.689 158.096 260.968 158.473C262.373 160.365 261.341 169.674 260.888 172.181C254.125 172.733 247.038 172.247 240.241 172.246L198.369 172.257L64.9857 172.306C64.9926 167.426 64.9702 162.546 64.9185 157.666L84.3595 157.692Z" fill="#B3C09E"/>
<path d="M133.069 320.335C132.569 317.688 132.341 314.465 133.586 311.983C134.09 310.977 134.91 310.094 136.016 309.771C136.121 309.74 136.228 309.715 136.336 309.696C136.443 309.677 136.552 309.663 136.661 309.656C136.771 309.649 136.88 309.647 136.99 309.652C137.099 309.656 137.208 309.667 137.316 309.683C137.425 309.7 137.532 309.722 137.638 309.75C137.744 309.778 137.848 309.812 137.95 309.851C138.052 309.891 138.152 309.936 138.25 309.986C138.347 310.036 138.441 310.092 138.533 310.152C139.448 310.752 139.991 311.762 140.225 312.81C140.88 315.748 139.35 318.289 137.847 320.666C142.611 321.563 145.875 323.177 149.775 326.017C150.065 323.108 150.5 319.786 152.881 317.768C153.79 316.997 154.979 316.551 156.177 316.735C156.303 316.754 156.428 316.78 156.552 316.812C156.675 316.844 156.797 316.883 156.916 316.928C157.035 316.972 157.152 317.024 157.266 317.081C157.38 317.138 157.491 317.201 157.598 317.271C157.705 317.34 157.809 317.414 157.908 317.494C158.008 317.574 158.103 317.659 158.193 317.749C158.284 317.839 158.369 317.934 158.45 318.033C158.53 318.132 158.605 318.235 158.675 318.342C159.361 319.381 159.477 320.665 159.244 321.864C158.596 325.191 155.64 327.407 153.003 329.173C154.498 331.079 155.908 334.949 157.743 336.287C159.735 336.039 161.394 333.35 163.54 332.812C164.693 332.524 166.466 332.652 167.441 333.34C168.011 333.742 168.358 334.336 168.442 335.028C168.597 336.31 167.987 337.629 167.18 338.595C166.167 339.809 164.588 340.824 162.979 340.912C161.741 340.977 160.197 340.514 159.252 339.688C159.756 342.462 160.703 345.624 161.781 348.229C163.243 348.108 165.284 346.026 167.072 345.693C168.367 345.455 170.161 345.69 171.219 346.532C171.802 346.995 172.128 347.599 172.189 348.34C172.285 349.505 171.703 350.621 170.91 351.437C169.754 352.631 168.062 353.297 166.402 353.235C164.797 353.18 163.184 352.357 162.113 351.182C162.321 353.415 163.265 357.305 164.569 359.129C165.515 359.165 167.732 357.674 169.782 357.765C170.975 357.82 171.965 358.473 172.722 359.364C173.241 359.974 173.597 360.585 173.497 361.41C173.385 362.324 172.716 363.13 172.007 363.669C170.534 364.788 169.454 364.703 167.722 364.491C167.772 364.648 167.775 364.684 167.874 364.84C168.42 365.718 169.974 367.425 170.982 367.683C172.415 368.078 175.213 366.528 176.738 366.205C178.234 365.885 180.394 366.068 181.674 366.962C182.255 367.367 182.627 367.974 182.715 368.675C182.852 369.775 182.346 370.93 181.654 371.763C181.59 371.839 181.523 371.914 181.455 371.988C181.386 372.06 181.316 372.13 181.244 372.2C181.172 372.269 181.098 372.338 181.023 372.405C180.947 372.471 180.87 372.534 180.792 372.595C180.713 372.658 180.633 372.719 180.551 372.778C180.469 372.834 180.386 372.89 180.302 372.944C180.217 372.998 180.132 373.049 180.044 373.097C179.957 373.147 179.869 373.195 179.779 373.241C179.69 373.284 179.599 373.327 179.508 373.368C179.416 373.407 179.323 373.445 179.23 373.482C179.136 373.517 179.041 373.55 178.946 373.58C178.851 373.611 178.755 373.639 178.658 373.665C178.561 373.691 178.464 373.715 178.366 373.737C178.268 373.757 178.17 373.775 178.071 373.793C177.972 373.808 177.873 373.821 177.773 373.832C177.674 373.843 177.574 373.851 177.474 373.858C175.697 373.952 174.191 373.185 172.934 371.998C174.446 374.324 176.765 375.512 178.633 377.474C179.581 378.473 180.37 379.736 180.266 381.165C180.184 382.294 179.638 383.619 178.761 384.36C178.301 384.745 177.715 384.947 177.115 384.882C176.218 384.784 175.45 384.177 174.924 383.476C173.209 381.198 173.722 378.404 174.146 375.809C174.049 375.77 173.946 375.744 173.856 375.692C172.812 375.091 171.953 373.042 171.509 371.985C171.271 374.018 170.151 376.315 168.488 377.565C167.666 378.182 166.683 378.632 165.633 378.446C164.529 378.251 163.713 377.422 163.108 376.531C162.533 375.682 162.016 374.595 162.25 373.551C163.006 370.18 167.8 370.637 169.369 369.569C169.407 369.543 169.442 369.514 169.479 369.488C167.876 368.678 166.016 365.634 165.384 363.969C165.056 365.154 164.771 366.332 163.903 367.256C163.179 368.026 162.167 368.525 161.105 368.548C160.972 368.552 160.838 368.55 160.705 368.541C160.571 368.531 160.439 368.514 160.307 368.492C160.175 368.468 160.045 368.439 159.916 368.404C159.788 368.367 159.661 368.324 159.537 368.274C159.412 368.226 159.291 368.172 159.172 368.111C159.053 368.048 158.938 367.98 158.826 367.908C158.715 367.834 158.607 367.755 158.503 367.67C158.399 367.585 158.3 367.496 158.205 367.402C157.584 366.779 157.198 365.908 157.267 365.02C157.513 361.818 161.169 361.939 162.977 360.265C163.015 360.232 163.05 360.196 163.086 360.16C161.772 358.61 160.865 352.964 160.732 350.885C160.594 351.323 160.422 351.734 160.196 352.135C159.041 354.182 157.482 356.019 155.129 356.636C153.9 356.959 152.564 356.9 151.471 356.202C151.376 356.141 151.284 356.076 151.196 356.006C151.108 355.934 151.023 355.859 150.942 355.781C150.861 355.702 150.785 355.62 150.712 355.533C150.64 355.446 150.572 355.355 150.509 355.262C150.445 355.168 150.387 355.071 150.333 354.971C150.28 354.871 150.232 354.769 150.189 354.665C150.146 354.56 150.108 354.454 150.076 354.345C150.044 354.236 150.017 354.126 149.997 354.015C149.803 353.01 150.104 352.005 150.696 351.189C152.061 349.312 155.106 347.961 157.4 348.177C158.111 348.245 159.049 348.578 159.742 348.431C159.821 348.412 159.9 348.392 159.979 348.372C158.986 346.561 157.065 340.04 156.627 337.808C156.739 340.008 157.141 342.596 156.535 344.74C156.172 346.029 155.315 347.419 154.09 348.026C153.547 348.297 152.912 348.392 152.339 348.154C151.51 347.811 151.183 346.943 150.826 346.186C148.092 358.202 145.855 370.252 143.757 382.395C143.129 386.031 141.667 392.154 141.88 395.672C141.822 395.734 141.768 395.802 141.706 395.861C141.238 396.305 140.166 396.344 139.538 396.386C136.881 396.576 134.143 396.295 131.475 396.285C128.538 396.272 125.604 396.501 122.666 396.426C121.158 396.39 118.67 396.589 117.621 395.492C118.39 393.785 117.197 390.238 116.718 388.502C116.686 388.554 116.655 388.606 116.62 388.658C115.897 389.706 114.694 390.417 113.438 390.603C112.329 390.766 111.05 390.571 110.163 389.846C109.6 389.386 109.275 388.776 109.244 388.048C109.088 384.373 113.205 384.269 115.008 382.157C115.04 382.118 115.071 382.079 115.102 382.04C116.715 379.517 117.313 375.956 118.171 373.088C117.445 373.731 116.745 374.181 115.833 374.52C114.165 375.14 112.479 375.193 110.847 374.435C109.356 373.744 108.736 372.791 108.19 371.315C107.471 371.779 106.735 372.285 105.924 372.569C105.831 372.601 105.738 372.631 105.643 372.657C105.549 372.685 105.453 372.711 105.358 372.735C105.262 372.757 105.166 372.776 105.069 372.794C104.972 372.811 104.875 372.827 104.777 372.84C104.68 372.853 104.582 372.863 104.484 372.872C104.386 372.881 104.287 372.886 104.189 372.888C104.091 372.891 103.992 372.891 103.894 372.888C103.796 372.886 103.697 372.882 103.599 372.875C103.501 372.869 103.403 372.86 103.305 372.849C103.208 372.836 103.11 372.822 103.013 372.807C102.916 372.789 102.82 372.77 102.724 372.748C102.628 372.726 102.532 372.702 102.438 372.676C102.343 372.65 102.249 372.621 102.155 372.588C102.062 372.558 101.97 372.524 101.878 372.487C101.786 372.452 101.696 372.414 101.606 372.373C101.516 372.334 101.428 372.291 101.34 372.246C98.9697 371.028 96.8845 368.042 96.1118 365.536C95.7595 368.424 94.7321 371.518 93.9499 374.331C94.8257 374.821 95.9709 375.346 96.6771 376.061C97.2968 376.691 97.6977 377.888 97.6471 378.763C97.6187 379.259 97.4054 379.625 97.0065 379.918C95.6597 380.907 93.947 379.964 92.5259 379.938C91.3054 379.918 90.442 383.492 89.4286 384.295C91.2933 386.801 94.7109 387.225 95.4529 390.766C95.6588 391.749 95.5205 392.77 94.949 393.606C94.4689 394.311 93.72 394.813 92.8671 394.918C91.8471 395.038 90.8683 394.618 90.1135 393.952C87.8509 391.951 87.7618 388.616 87.5746 385.832C86.5615 387.904 84.7875 389.716 82.746 390.78C80.9948 391.69 79.1026 391.984 77.2047 391.367C76.2288 391.054 75.1367 390.447 74.6938 389.474C74.4332 388.9 74.457 388.296 74.6808 387.718C76.8667 382.053 84.8729 385.182 87.756 383.701C87.8525 383.652 87.9442 383.59 88.0384 383.538C88.2501 383.401 88.4422 383.162 88.5789 382.95C89.0267 382.262 90.3027 379.54 90.1393 378.867C89.4814 379.23 88.7606 379.536 88.0035 379.595C87.8578 379.606 87.7119 379.608 87.5658 379.602C87.4199 379.597 87.2746 379.585 87.13 379.566C86.9852 379.544 86.842 379.516 86.7005 379.481C86.5587 379.444 86.4193 379.4 86.2823 379.35C86.1453 379.3 86.0114 379.243 85.8805 379.177C85.7496 379.112 85.6225 379.04 85.4992 378.962C85.3759 378.884 85.2571 378.799 85.1427 378.707C85.0283 378.616 84.9191 378.519 84.8152 378.417C84.1117 377.722 83.6896 376.792 83.7506 375.79C83.7969 375.033 84.0415 374.367 84.6078 373.855C87.7742 371.002 89.2306 374.488 91.3719 374.524C91.4583 374.527 91.5444 374.52 91.6309 374.52C93.2177 372.781 94.2804 367.096 94.6809 364.713C93.6323 366.169 91.6635 366.91 89.9938 367.389C88.1161 367.928 86.022 368.052 84.2806 367.017C83.2219 366.387 82.4143 365.366 82.1155 364.165C81.8793 363.215 81.9713 362.141 82.5486 361.329C85.402 357.315 91.5823 363.401 94.966 362.647C95.0133 362.638 95.0596 362.621 95.1065 362.611C96.7664 359.906 97.6497 354.789 98.2505 351.636C98.1008 351.864 97.9449 352.06 97.7544 352.256C96.8274 353.206 95.5439 353.793 94.2047 353.757C92.7637 353.721 91.322 353.01 90.395 351.91C89.7502 351.146 89.2485 350.096 89.4172 349.071C89.5427 348.307 90.0101 347.72 90.6423 347.299C93.1156 345.651 96.5512 347.605 99.1282 348.082C99.1892 348.092 99.2509 348.102 99.3122 348.111L99.3693 347.948C99.9316 346.329 102.085 338.79 101.509 337.606C99.8693 338.631 97.6236 339.163 95.7008 338.898C94.3583 338.715 93.0859 338.134 92.2813 337.005C91.5872 336.033 91.231 334.629 91.475 333.454C91.686 332.436 92.5621 331.353 93.4372 330.808C96.7325 328.755 99.7043 334.156 102.178 334.695C102.263 334.714 102.35 334.727 102.436 334.744C103.288 334.104 106.025 329.169 107.259 327.688C105.173 326.545 103.127 325.182 102.443 322.76C102.106 321.562 102.202 320.256 102.821 319.166C103.319 318.289 104.122 317.631 105.115 317.407C106.015 317.204 106.922 317.389 107.688 317.897C109.712 319.239 110.14 321.949 110.563 324.147C113.674 322.385 116.831 321.414 120.248 320.456C119.533 318.681 118.909 316.857 119.215 314.919C119.42 313.618 120.061 312.392 121.178 311.653C122.022 311.096 123.063 310.885 124.05 311.138C124.886 311.352 125.614 311.957 126.014 312.717C127.18 314.929 126.221 317.727 125.55 319.945C128.087 319.878 130.553 319.982 133.069 320.335ZM99.1237 356.055C98.5695 358.212 97.9589 360.784 96.9178 362.752C97.5496 363.3 98.2629 363.421 99.0513 363.61C103.732 364.752 105.156 364.991 108.231 368.949C109.454 368.796 109.904 367.314 111.164 367.337C112.232 367.36 115.106 368.254 115.808 367.559L115.993 367.376C116.142 366.671 116.038 365.891 116.003 365.173C115.335 363.943 115.216 362.589 115.122 361.218C113.795 359.563 113.554 346.796 112.779 343.454C112.018 344.175 111.108 344.498 110.056 344.463C108.125 344.394 106.368 342.906 105.17 341.503C104.373 340.566 103.845 339.574 103.381 338.441C102.878 341.542 100.319 349.214 100.798 351.691C102.894 354.038 109.976 352.347 109.759 357.181C109.721 358.049 109.28 358.832 108.642 359.407C108.531 359.505 108.415 359.596 108.295 359.681C108.174 359.768 108.05 359.848 107.922 359.922C107.794 359.996 107.662 360.064 107.527 360.125C107.392 360.183 107.255 360.237 107.115 360.284C106.975 360.332 106.832 360.373 106.688 360.405C106.544 360.438 106.399 360.463 106.252 360.48C106.105 360.5 105.958 360.511 105.81 360.513C105.662 360.517 105.515 360.514 105.367 360.503C103.191 360.337 101.27 359.038 99.944 357.367C99.6119 356.946 99.3491 356.544 99.1237 356.055ZM120.838 322.083C117.569 323.235 114.568 324.454 111.579 326.22C114.511 327.123 116.901 328.305 118.53 331.033C119.542 332.727 120.024 334.773 119.457 336.705C119.207 337.557 118.729 338.448 117.904 338.862C117.236 339.198 116.52 339.127 115.85 338.843C112.325 337.348 110.465 331.418 109.18 328.128C108.128 329.718 104.738 334.186 104.559 335.84C107.373 337.322 110.976 336.408 113.491 338.092C115.345 339.335 114.225 339.632 114.637 341.206C114.654 341.268 114.684 341.326 114.707 341.385C115.732 341.786 117.381 341.806 118.395 341.359C118.453 341.333 118.505 341.3 118.561 341.268C118.487 340.804 118.423 340.331 118.438 339.861C118.466 339.035 118.803 337.929 119.438 337.371C121.334 335.703 125.062 338.477 126.747 338.549C126.835 338.552 126.923 338.549 127.011 338.552C127.307 336.052 127.392 333.468 127.445 330.951L126.46 331.301C126.216 331.389 125.977 331.49 125.725 331.552C124.582 331.842 123.201 331.516 122.209 330.919C120.935 330.148 120.137 328.827 119.809 327.401C119.343 325.367 119.764 323.828 120.838 322.083ZM135.177 322.965L135.397 323.485C136.646 323.501 137.784 323.295 138.77 324.239C139.588 325.022 139.782 326.189 139.746 327.273C139.69 329.009 138.905 330.808 137.582 331.94C136.437 332.923 134.99 333.33 133.499 333.151C131.814 332.949 130.544 332.028 129.338 330.896C129.183 332.658 128.333 338.849 129.067 340.083C130.567 339.662 132.273 338.144 133.503 337.168C134.938 337.449 136.45 336.689 137.978 336.885C138.242 336.92 138.508 336.943 138.772 336.976L138.847 336.924C138.857 334.479 138.869 332.218 140.762 330.387C142.655 328.556 145.471 328.207 147.986 328.291C148.391 328.302 148.795 328.331 149.197 328.376C145.626 325.352 140.407 322.426 135.536 322.908C135.397 322.922 135.321 322.939 135.177 322.965ZM150.604 329.874C148.06 331.96 146.806 334.975 144.453 337.142C143.482 338.033 141.738 337.981 140.91 338.823C140.585 339.156 140.473 340.905 140.457 341.434C142.485 341.956 148.423 342.064 150.343 341.333C150.961 340.422 150.921 339.065 151.624 338.105C152.424 337.012 153.858 336.653 154.675 335.53C153.258 334.101 152.091 331.562 150.604 329.874ZM129.614 323.579L130.517 326.516L132.439 325.024C132.982 324.624 133.549 324.239 134.074 323.816C132.587 323.75 131.1 323.671 129.614 323.579Z" fill="#718287"/>
<path d="M116.003 365.173C116.346 365.115 116.483 365.193 116.792 365.314C117.996 365.784 119.66 365.679 120.816 365.157C121.326 364.925 121.818 364.589 122.196 364.175C121.831 365.806 120.772 369.263 119.437 370.307C119.374 370.359 119.295 370.385 119.224 370.421C118.236 370.359 117.237 369.367 116.606 368.646C116.262 368.254 116.081 367.895 115.993 367.376C116.142 366.671 116.038 365.891 116.003 365.173Z" fill="#D1C6C7"/>
<path d="M118.561 341.268C119.117 341.711 119.618 342.302 120.383 342.224C121.524 343.118 123.541 343.118 124.931 342.952C125.709 342.857 126.418 342.749 127.056 342.26C126.988 343.546 126.923 344.818 126.732 346.094C126.691 346.117 126.651 346.14 126.609 346.163C124.65 347.149 116.86 345.223 115.435 349.701C115.252 350.278 115.348 350.853 115.644 351.372C116.374 352.654 117.94 353.477 119.336 353.806C121.004 354.201 123.647 354.045 125.113 353.124C125.574 352.834 126.016 352.485 126.342 352.044C125.957 354.002 125.621 356.881 124.511 358.525C122.963 359.149 121.138 358.503 119.536 358.924C118.02 359.325 116.511 361.091 115.122 361.218C113.795 359.563 113.554 346.796 112.779 343.454C113.276 343.281 113.474 342.906 113.76 342.495L114.707 341.385C115.732 341.786 117.381 341.806 118.395 341.359C118.453 341.333 118.505 341.3 118.561 341.268Z" fill="#D1C6C7"/>
<path d="M118.561 341.268C119.117 341.711 119.618 342.302 120.384 342.224C119.748 342.971 119.092 343.027 118.159 343.098C116.834 343.2 114.879 343.278 113.76 342.495L114.707 341.385C115.732 341.786 117.381 341.806 118.395 341.359C118.453 341.333 118.505 341.3 118.561 341.268Z" fill="#B3C09E"/>
<path d="M140.457 341.434C142.485 341.956 148.423 342.064 150.343 341.333C150.457 342.048 150.564 342.694 150.504 343.422C150.578 344.355 150.662 345.265 150.826 346.186C148.092 358.202 145.854 370.252 143.757 382.395C143.129 386.031 141.667 392.154 141.88 395.672C141.822 395.734 141.768 395.802 141.706 395.861C141.238 396.305 140.166 396.344 139.538 396.386C136.881 396.576 134.143 396.295 131.475 396.285C128.538 396.272 125.604 396.501 122.666 396.426C121.158 396.39 118.67 396.589 117.621 395.492C118.39 393.785 117.197 390.238 116.718 388.502C117.248 387.859 117.769 387.225 117.989 386.4C118.382 384.925 117.126 383.352 116.455 382.111C117.626 381.034 118.254 379.311 118.823 377.869C118.958 378.427 119.133 378.969 119.325 379.51C120.136 381.795 121.53 384.657 123.896 385.685C124.826 386.09 125.866 386.158 126.805 385.744C126.907 385.698 127.006 385.648 127.103 385.594C127.199 385.539 127.293 385.481 127.384 385.417C127.474 385.352 127.562 385.284 127.646 385.212C127.73 385.138 127.81 385.061 127.886 384.98C127.963 384.9 128.035 384.816 128.103 384.729C128.171 384.642 128.235 384.55 128.294 384.455C128.353 384.361 128.408 384.264 128.457 384.164C128.507 384.066 128.551 383.965 128.591 383.861C128.636 383.745 128.674 383.628 128.706 383.508C128.739 383.386 128.764 383.265 128.783 383.143C128.802 383.019 128.814 382.895 128.819 382.771C128.825 382.647 128.823 382.523 128.815 382.399C128.807 382.275 128.793 382.152 128.771 382.03C128.75 381.908 128.722 381.787 128.687 381.668C128.653 381.548 128.612 381.43 128.564 381.315C128.517 381.2 128.464 381.088 128.404 380.979C127.499 379.285 125.151 378.12 123.276 378.172C122.27 378.202 121.386 378.74 120.38 378.466C119.812 377.471 119.596 376.325 119.316 375.225C119.93 374.615 120.094 373.427 120.312 372.611C121.012 374.021 122.671 375.437 124.142 375.995C125.599 376.55 127.334 376.612 128.75 375.911C128.878 375.847 129.003 375.779 129.124 375.705C129.245 375.629 129.361 375.546 129.474 375.457C129.586 375.37 129.693 375.276 129.796 375.176C129.898 375.076 129.995 374.972 130.086 374.863C130.177 374.754 130.262 374.64 130.341 374.52C130.42 374.401 130.493 374.278 130.559 374.152C130.625 374.025 130.684 373.896 130.737 373.763C130.789 373.63 130.834 373.496 130.872 373.358C131.097 372.52 130.999 371.648 130.518 370.921C128.533 367.925 125.255 369.589 122.495 369.034C122.431 369.021 122.368 369.005 122.304 368.992C123.884 367.765 124.735 363.979 125.153 362.119C125.183 362.164 125.213 362.21 125.243 362.256C126.254 363.747 127.993 364.759 129.75 365.069C131.539 365.386 133.499 365.131 134.991 364.034C135.861 363.395 136.577 362.468 136.717 361.371C136.846 360.356 136.414 359.407 135.755 358.653C131.854 354.198 129.774 358.715 126.457 358.392C126.4 358.385 126.344 358.375 126.287 358.369C127.888 357.138 128.229 352.501 128.498 350.579C129.149 351.864 130.854 353.235 132.202 353.757C133.793 354.374 135.741 354.332 137.311 353.672C138.519 353.163 139.551 352.259 140.005 351.009C140.297 350.2 140.324 349.276 139.903 348.506C138.108 345.22 132.071 348.17 129.249 347.171C129.195 347.152 129.141 347.129 129.088 347.109L129.08 341.924C129.418 342.247 129.812 342.478 130.258 342.622C132.691 343.402 136.353 343.67 138.68 342.472C139.517 342.377 139.836 341.956 140.457 341.434Z" fill="#D1C6C7"/>
<path d="M140.457 341.434C142.485 341.956 148.423 342.064 150.343 341.333C150.457 342.048 150.564 342.694 150.504 343.422C150.252 343.399 149.998 343.382 149.747 343.356C147.153 343.082 144.571 343.373 141.969 343.337C140.666 343.32 139.619 343.438 138.68 342.472C139.517 342.377 139.836 341.956 140.457 341.434Z" fill="#B3C09E"/>
<path d="M211.087 65.628C210.526 65.0209 209.986 64.408 209.519 63.723C207.653 60.9826 205.934 57.0114 206.637 53.6238C206.956 52.084 207.844 50.6729 209.21 49.8596C210.401 49.1504 211.797 49.0202 213.111 49.4435C214.628 49.9323 215.778 51.0648 216.482 52.4721C218.338 56.1834 217.276 60.3755 216.039 64.0768L220.262 63.7298C220.701 62.9175 221.197 62.0732 221.812 61.381C223.274 59.7355 225.465 58.6566 227.664 58.5355C229.127 58.4549 230.749 58.7917 231.843 59.8246C232.508 60.4529 232.896 61.2959 232.899 62.2155C232.906 64.2484 231.293 65.6769 229.957 66.9709C230.884 67.5838 231.787 68.2398 232.696 68.8785C234.984 65.626 238.064 61.7753 242.207 61.0553C243.755 60.7864 245.568 60.9502 246.857 61.9199C247.592 62.473 248.092 63.2511 248.224 64.1665C248.376 65.2301 248.01 66.2167 247.396 67.0741C245.575 69.6177 242.132 70.1438 239.279 70.6284C245.356 71.3046 251.962 73.0288 256.22 77.7062C257.903 79.5553 259.215 82.0429 259.049 84.6084C258.956 86.0623 258.313 87.4627 257.183 88.4023C256.138 89.2704 254.774 89.6288 253.434 89.4587C246.942 88.6363 246.15 79.432 242.739 75.1224C240.71 72.5592 238.566 71.8206 235.403 71.4626C237.734 75.7245 238.554 79.0015 238.03 83.8502C238.978 84.3206 239.922 84.798 240.863 85.2823C243.57 86.6804 248.323 88.9692 249.201 92.0918C249.236 92.2173 249.265 92.3443 249.287 92.4727C249.309 92.6008 249.325 92.7299 249.334 92.86C249.343 92.9899 249.346 93.1199 249.342 93.25C249.338 93.3804 249.327 93.51 249.31 93.6391C249.293 93.7683 249.269 93.8962 249.239 94.0229C249.209 94.1497 249.173 94.2746 249.13 94.3975C249.087 94.5207 249.039 94.6413 248.984 94.7594C248.929 94.8774 248.868 94.9924 248.801 95.1044C248.018 96.4343 246.606 97.3126 245.117 97.6324C245.01 97.655 244.902 97.6749 244.794 97.6921C244.685 97.7093 244.576 97.7238 244.467 97.7355C244.358 97.7473 244.248 97.7562 244.139 97.7623C244.029 97.7684 243.92 97.7717 243.81 97.7724C243.7 97.773 243.591 97.7709 243.481 97.7659C243.371 97.7609 243.262 97.7531 243.153 97.7427C243.043 97.732 242.934 97.7188 242.826 97.7029C242.717 97.6868 242.609 97.668 242.502 97.6464C242.394 97.6249 242.287 97.6006 242.181 97.5737C242.074 97.5467 241.968 97.5171 241.864 97.4849C241.759 97.4525 241.655 97.4175 241.551 97.3801C241.448 97.3425 241.346 97.3023 241.245 97.2597C241.144 97.2168 241.044 97.1715 240.945 97.1236C240.847 97.0757 240.749 97.0255 240.653 96.9728C240.556 96.92 240.462 96.8648 240.368 96.8074C240.275 96.7497 240.183 96.6898 240.092 96.6275C237.168 94.6482 236.495 91.5523 235.847 88.3129C235.118 96.449 235.811 98.9072 242.489 103.909C243.881 104.951 245.365 105.99 246.328 107.469C247.039 108.561 247.321 109.849 247.007 111.123C246.676 112.47 245.774 113.824 244.562 114.52C243.231 115.283 241.444 115.342 239.996 114.902C237.752 114.22 236.199 112.372 235.149 110.358C231.217 102.82 232.665 96.731 235.067 89.165C233.311 91.3797 231.177 93.1518 229.037 94.9775C230.697 97.9222 232.045 101.85 231.302 105.258C230.828 107.434 229.612 108.663 227.796 109.839C228.716 117.358 229.548 124.887 230.292 132.426C231.157 140.92 232.741 149.55 230.659 157.966C226.549 158.133 222.332 157.9 218.213 157.896L194.937 157.943C193.133 150.283 194.257 143.155 195.078 135.464L196.706 120.239C197.034 117.333 197.505 114.39 197.544 111.465C196.49 111.489 195.703 111.246 194.821 110.655C192.386 109.024 191.627 105.756 191.056 103.077C190.237 105.374 189.405 107.691 188.784 110.05C187.887 113.453 187.4 117.231 185.718 120.352C184.88 121.906 183.478 123.737 181.684 124.193C180.685 124.448 179.717 124.205 178.846 123.692C177.457 122.875 176.261 121.468 175.901 119.88C174.385 113.19 185.028 108.719 188.04 103.753L188.21 103.47C187.385 103.824 186.542 104.125 185.68 104.372C183.435 105.025 180.701 105.166 178.598 103.985C177.302 103.257 176.347 102.095 175.985 100.637C175.94 100.449 175.904 100.26 175.878 100.069C175.852 99.8774 175.835 99.6853 175.828 99.4923C175.821 99.2995 175.823 99.1068 175.835 98.914C175.847 98.7215 175.868 98.5299 175.899 98.3393C175.929 98.1487 175.969 97.9601 176.019 97.7734C176.068 97.5867 176.126 97.403 176.194 97.2222C176.262 97.0414 176.338 96.8643 176.423 96.6908C176.508 96.5174 176.601 96.3487 176.702 96.1847C177.518 94.8936 178.816 94.0477 180.296 93.7288C183.946 92.9429 187.615 95.0992 190.548 97.0166C191.868 93.7053 192.924 90.2204 194.094 86.8488C192.621 87.3766 191.172 87.7946 189.603 87.9013C187.389 88.0518 184.985 87.6037 183.288 86.0822C182.159 85.0685 181.417 83.6002 181.365 82.0735C181.358 81.9073 181.359 81.7411 181.369 81.5749C181.379 81.4088 181.398 81.2437 181.425 81.0794C181.452 80.9152 181.488 80.7528 181.532 80.5922C181.576 80.4318 181.628 80.2741 181.688 80.119C181.748 79.9638 181.817 79.8122 181.893 79.664C181.969 79.5161 182.052 79.3724 182.143 79.2329C182.234 79.0934 182.332 78.9591 182.436 78.8298C182.541 78.7004 182.652 78.5768 182.77 78.4591C183.809 77.4268 185.194 76.9771 186.637 76.9977C190.342 77.0499 193.101 79.5635 195.532 82.0611C197.64 78.2796 200.209 74.8058 202.975 71.4868C200.987 71.0002 199.277 70.4199 197.717 69.0394C196.337 67.8178 195.441 66.1475 195.347 64.2935C195.342 64.1877 195.34 64.0819 195.341 63.9759C195.341 63.8702 195.345 63.7644 195.351 63.6587C195.356 63.5532 195.365 63.4478 195.376 63.3425C195.387 63.2372 195.401 63.1322 195.417 63.0275C195.433 62.9231 195.452 62.819 195.474 62.7152C195.495 62.6116 195.519 62.5086 195.546 62.4061C195.572 62.3037 195.601 62.2018 195.633 62.1007C195.664 61.9997 195.698 61.8995 195.734 61.8001C195.771 61.7007 195.81 61.6023 195.851 61.5051C195.893 61.4076 195.936 61.3112 195.982 61.2159C196.028 61.1206 196.077 61.0265 196.127 60.9336C196.178 60.8407 196.231 60.7491 196.286 60.6588C196.342 60.5685 196.399 60.4796 196.459 60.3922C196.518 60.3047 196.58 60.2188 196.644 60.1343C196.708 60.0499 196.774 59.9671 196.841 59.886C196.91 59.8048 196.979 59.7254 197.051 59.6477C198.064 58.5319 199.467 57.746 201 57.7212C202.213 57.7013 203.273 58.2868 204.089 59.151C206.384 61.5821 206.276 65.4661 206.233 68.5743C207.761 67.4464 209.434 66.5548 211.087 65.628ZM227.696 68.6412C228.44 73.4231 229.07 77.6798 228.087 82.4975C230.606 82.6306 233.029 83.0686 235.483 83.6358C236.147 79.8442 236.131 76.5861 233.797 73.3105C232.247 71.1353 230.093 69.7326 227.696 68.6412ZM212.252 67.9833C213.039 71.1777 213.989 74.4586 214.321 77.7356C215.524 77.2907 216.59 77.2016 217.861 77.1651C219.653 73.1391 222.006 70.0008 224.973 66.7859C220.419 66.4954 216.623 66.3845 212.252 67.9833ZM218.421 85.7461C218.404 87.4529 218.333 89.1552 218.677 90.8376C221.022 92.2005 222.737 93.5431 224.346 95.7421L226.885 93.1443C226.382 92.9289 225.873 92.7138 225.389 92.4563C223.273 91.3294 222.683 89.2809 222.016 87.1732C220.702 87.0636 219.47 86.5261 218.421 85.7461ZM203.483 75.0911C201.243 77.8452 199.036 80.4881 197.744 83.8411C199.454 83.8042 201.182 83.7047 202.88 83.9459C203.298 82.7945 203.874 81.6688 204.377 80.5501C204.021 78.7404 203.618 76.933 203.483 75.0911ZM194.26 96.199L198.256 98.6451C198.334 96.9733 198.43 95.3025 198.545 93.6329C197.658 91.1356 197.202 88.7414 196.918 86.1119C195.817 89.4177 194.931 92.7801 194.26 96.199Z" fill="#718287"/>
<path d="M221.615 108.707C221.172 106.327 221.3 104.02 222.264 101.785C222.23 103.927 222.27 105.781 222.92 107.845C222.484 108.129 222.039 108.405 221.615 108.707Z" fill="#FFFBF8"/>
<path d="M214.321 77.7356C215.524 77.2907 216.59 77.2017 217.861 77.1651C217.008 80.3474 217.008 82.7409 218.421 85.7461C218.404 87.4529 218.333 89.1552 218.677 90.8376C216.788 90.4845 215.114 90.3086 213.399 91.4218C212.369 92.0902 211.666 93.1166 211.446 94.3264C211.42 94.473 211.402 94.6204 211.392 94.7686C211.382 94.917 211.379 95.0656 211.384 95.2144C211.388 95.363 211.4 95.511 211.42 95.6583C211.44 95.8058 211.467 95.9519 211.501 96.0966C211.536 96.2412 211.577 96.3838 211.626 96.5241C211.675 96.6646 211.731 96.8023 211.794 96.9369C211.857 97.0718 211.927 97.2031 212.003 97.3308C212.079 97.4583 212.162 97.5818 212.25 97.7013C213.285 99.1216 215.001 99.8539 216.706 100.052C217.898 100.191 219.228 100.012 220.412 99.8239C216.99 104.036 212.676 109.132 213.259 114.937C213.471 117.045 214.347 119.166 216.014 120.533C217.156 121.468 218.636 121.981 220.116 121.791C221.321 121.637 222.457 121.012 223.149 120C224.1 118.609 224.064 116.803 223.697 115.225C223.18 112.998 222.112 110.942 221.616 108.707C222.039 108.405 222.485 108.129 222.92 107.845C223.796 108.939 224.797 109.714 226.248 109.854C226.76 109.904 227.284 109.88 227.796 109.839C228.716 117.358 229.548 124.887 230.292 132.426C231.157 140.92 232.741 149.55 230.659 157.966C226.55 158.133 222.332 157.9 218.213 157.896L194.937 157.943C193.133 150.283 194.257 143.155 195.078 135.464L196.706 120.239C197.034 117.333 197.505 114.39 197.545 111.465C199.307 110.998 200.928 110.297 202.019 108.76C202.907 107.509 203.241 106.006 202.956 104.503C202.445 101.808 200.38 100.133 198.256 98.6451C198.334 96.9733 198.43 95.3025 198.545 93.6329C199.78 95.6498 201.191 97.7851 203.52 98.6343C204.787 99.0965 206.16 99.0433 207.355 98.4042C208.811 97.6259 209.742 96.1566 210.186 94.6038C210.223 94.475 210.256 94.3453 210.286 94.2148C210.317 94.0842 210.344 93.953 210.367 93.8212C210.391 93.6893 210.411 93.5569 210.428 93.424C210.445 93.2913 210.459 93.1581 210.47 93.0245C210.48 92.8909 210.487 92.7573 210.491 92.6234C210.495 92.4894 210.495 92.3555 210.493 92.2217C210.49 92.0877 210.484 91.9539 210.474 91.8203C210.465 91.6867 210.452 91.5534 210.436 91.4205C210.419 91.2875 210.4 91.155 210.377 91.023C210.355 90.8909 210.329 90.7595 210.299 90.6287C210.27 90.498 210.238 90.3681 210.202 90.2391C210.166 90.11 210.127 89.9819 210.085 89.8546C210.043 89.7275 209.998 89.6015 209.95 89.4764C209.902 89.3515 209.85 89.2279 209.795 89.1056C209.741 88.9831 209.684 88.8621 209.623 88.7427C209.563 88.6233 209.499 88.5053 209.433 88.3889C207.932 85.7702 205.671 84.7288 202.88 83.9459C203.298 82.7945 203.875 81.6689 204.377 80.5501C204.657 81.0161 204.939 81.4913 205.268 81.9254C206.123 83.0559 207.498 83.9981 208.919 84.1684C210.107 84.3107 211.281 83.9162 212.184 83.1414C213.857 81.707 214.105 79.8024 214.321 77.7356Z" fill="#D8D4EE"/>
</svg>
