<svg width="24" height="24" viewBox="0 0 24 24" fill="none" xmlns="http://www.w3.org/2000/svg">
<path d="M6.25 10.5001C8.59721 10.5001 10.5 8.59733 10.5 6.25012C10.5 3.90291 8.59721 2.00012 6.25 2.00012C3.90279 2.00012 2 3.90291 2 6.25012C2 8.59733 3.90279 10.5001 6.25 10.5001Z" stroke="#586A6A" stroke-width="1.5"/>
<path d="M17.75 22.0001C20.0972 22.0001 22 20.0973 22 17.7501C22 15.4029 20.0972 13.5001 17.75 13.5001C15.4028 13.5001 13.5 15.4029 13.5 17.7501C13.5 20.0973 15.4028 22.0001 17.75 22.0001Z" stroke="#586A6A" stroke-width="1.5"/>
<path d="M6.25 22.0001C8.59721 22.0001 10.5 20.0973 10.5 17.7501C10.5 15.4029 8.59721 13.5001 6.25 13.5001C3.90279 13.5001 2 15.4029 2 17.7501C2 20.0973 3.90279 22.0001 6.25 22.0001Z" stroke="#586A6A" stroke-width="1.5"/>
<path d="M20.8678 2.43897L21.5602 3.13134C22.146 3.71712 22.146 4.66687 21.5602 5.25266L17.9328 8.94832C17.6475 9.23367 17.2825 9.42603 16.8858 9.50012L14.6376 9.98817C14.2827 10.0652 13.9666 9.75005 14.0426 9.39488L14.5212 7.15956C14.5952 6.76287 14.7876 6.39787 15.0729 6.11252L18.7465 2.43897C19.3323 1.85319 20.2821 1.85319 20.8678 2.43897Z" stroke="#586A6A" stroke-width="1.5" stroke-linecap="round" stroke-linejoin="round"/>
</svg>
